<svg xmlns="http://www.w3.org/2000/svg" width="1500" height="500" fill="none"><defs/><g clip-path="url(#clip0)"><path d="M0 0h1500v500H0z"/><path stroke="#E9E9E9" stroke-linecap="round" stroke-width="4" d="M1 498L751 33l750 465"/><path stroke="#E9E9E9" stroke-linecap="round" stroke-width="4" d="M-397 498L751 33l1148 465"/><path stroke="#E9E9E9" stroke-linecap="round" stroke-width="4" d="M-1136 498L751 33l1887 465"/><path stroke="#E9E9E9" stroke-linecap="round" stroke-width="4" d="M251 498L750.5 33 1250 498"/><path stroke="#E9E9E9" stroke-linecap="round" stroke-width="4" d="M464 498L750.5 33 1037 498"/><path stroke="#E9E9E9" stroke-linecap="round" stroke-width="4" d="M654 498l96-465 96 465"/><path stroke="#E9E9E9" stroke-width="4" d="M-128 500h1757M-128 400h1757" class="line-100"/><path stroke="#E9E9E9" stroke-width="4" d="M-128 300h1757M-128 225h1757" class="line-75"/><path stroke="#E9E9E9" stroke-width="4" d="M-128 175h1757" style="animation:move-50 4s infinite linear"/><path fill="url(#paint0_linear)" d="M0 0h1501v500H0z"/></g><text fill="#000" style="white-space:pre" font-family="-apple-system, BlinkMacSystemFont, 'Segoe UI', Roboto, Helvetica, Arial, sans-serif" font-size="64" font-weight="bold" letter-spacing="0em" text-anchor="middle"><tspan x="50%" y="251.8">it will run fine just fine</tspan></text><defs><linearGradient id="paint0_linear" x1="751" x2="750.5" y1="205.5" y2="526.1" gradientUnits="userSpaceOnUse"><stop stop-color="#fff"/><stop offset="1" stop-color="#fff" stop-opacity="0"/></linearGradient><clipPath id="clip0"><rect width="1500" height="500" rx="20"/></clipPath></defs><style>@keyframes move-100{from{transform:translateY(0)}to{transform:translateY(-100px)}}@keyframes move-75{from{transform:translateY(0)}to{transform:translateY(-75px)}}@keyframes line-50{from{transform:translateY(0)}to{transform:translateY(-50px)}}.line-100{animation:move-100 4s infinite linear}.line-75{animation:move-75 4s infinite linear}.line-50{animation:move-50 4s infinite linear}</style></svg>
